<svg width="12" height="10" viewBox="0 0 12 10" fill="none" xmlns="http://www.w3.org/2000/svg">
<path d="M3.33332 5.5C3.15651 5.5 2.98694 5.44732 2.86192 5.35355C2.73689 5.25979 2.66666 5.13261 2.66666 5C2.66666 4.86739 2.73689 4.74021 2.86192 4.64645C2.98694 4.55268 3.15651 4.5 3.33332 4.5C3.51013 4.5 3.6797 4.55268 3.80473 4.64645C3.92975 4.74021 3.99999 4.86739 3.99999 5C3.99999 5.13261 3.92975 5.25979 3.80473 5.35355C3.6797 5.44732 3.51013 5.5 3.33332 5.5ZM3.33332 7.5C3.15651 7.5 2.98694 7.44732 2.86192 7.35355C2.73689 7.25979 2.66666 7.13261 2.66666 7C2.66666 6.86739 2.73689 6.74021 2.86192 6.64645C2.98694 6.55268 3.15651 6.5 3.33332 6.5C3.51013 6.5 3.6797 6.55268 3.80473 6.64645C3.92975 6.74021 3.99999 6.86739 3.99999 7C3.99999 7.13261 3.92975 7.25979 3.80473 7.35355C3.6797 7.44732 3.51013 7.5 3.33332 7.5ZM5.33332 7C5.33332 7.13261 5.40356 7.25979 5.52859 7.35355C5.65361 7.44732 5.82318 7.5 5.99999 7.5C6.1768 7.5 6.34637 7.44732 6.47139 7.35355C6.59642 7.25979 6.66666 7.13261 6.66666 7C6.66666 6.86739 6.59642 6.74021 6.47139 6.64645C6.34637 6.55268 6.1768 6.5 5.99999 6.5C5.82318 6.5 5.65361 6.55268 5.52859 6.64645C5.40356 6.74021 5.33332 6.86739 5.33332 7ZM8.66666 7.5C8.48985 7.5 8.32028 7.44732 8.19525 7.35355C8.07023 7.25979 7.99999 7.13261 7.99999 7C7.99999 6.86739 8.07023 6.74021 8.19525 6.64645C8.32028 6.55268 8.48985 6.5 8.66666 6.5C8.84347 6.5 9.01304 6.55268 9.13806 6.64645C9.26309 6.74021 9.33332 6.86739 9.33332 7C9.33332 7.13261 9.26309 7.25979 9.13806 7.35355C9.01304 7.44732 8.84347 7.5 8.66666 7.5ZM5.33332 5C5.33332 5.13261 5.40356 5.25979 5.52859 5.35355C5.65361 5.44732 5.82318 5.5 5.99999 5.5C6.1768 5.5 6.34637 5.44732 6.47139 5.35355C6.59642 5.25979 6.66666 5.13261 6.66666 5C6.66666 4.86739 6.59642 4.74021 6.47139 4.64645C6.34637 4.55268 6.1768 4.5 5.99999 4.5C5.82318 4.5 5.65361 4.55268 5.52859 4.64645C5.40356 4.74021 5.33332 4.86739 5.33332 5ZM8.66666 5.5C8.48985 5.5 8.32028 5.44732 8.19525 5.35355C8.07023 5.25979 7.99999 5.13261 7.99999 5C7.99999 4.86739 8.07023 4.74021 8.19525 4.64645C8.32028 4.55268 8.48985 4.5 8.66666 4.5C8.84347 4.5 9.01304 4.55268 9.13806 4.64645C9.26309 4.74021 9.33332 4.86739 9.33332 5C9.33332 5.13261 9.26309 5.25979 9.13806 5.35355C9.01304 5.44732 8.84347 5.5 8.66666 5.5ZM3.33332 2.5C3.15651 2.5 2.98694 2.55268 2.86192 2.64645C2.73689 2.74021 2.66666 2.86739 2.66666 3C2.66666 3.13261 2.73689 3.25979 2.86192 3.35355C2.98694 3.44732 3.15651 3.5 3.33332 3.5H8.66666C8.84347 3.5 9.01304 3.44732 9.13806 3.35355C9.26309 3.25979 9.33332 3.13261 9.33332 3C9.33332 2.86739 9.26309 2.74021 9.13806 2.64645C9.01304 2.55268 8.84347 2.5 8.66666 2.5H3.33332Z" fill="#A7A7A7"/>
<path fill-rule="evenodd" clip-rule="evenodd" d="M2 0.5C1.46957 0.5 0.960859 0.658035 0.585787 0.93934C0.210714 1.22064 0 1.60218 0 2V8C0 8.39782 0.210714 8.77936 0.585787 9.06066C0.960859 9.34196 1.46957 9.5 2 9.5H10C10.5304 9.5 11.0391 9.34196 11.4142 9.06066C11.7893 8.77936 12 8.39782 12 8V2C12 1.60218 11.7893 1.22064 11.4142 0.93934C11.0391 0.658035 10.5304 0.5 10 0.5H2ZM10 1.5H2C1.82319 1.5 1.65362 1.55268 1.5286 1.64645C1.40357 1.74021 1.33333 1.86739 1.33333 2V8C1.33333 8.13261 1.40357 8.25979 1.5286 8.35355C1.65362 8.44732 1.82319 8.5 2 8.5H10C10.1768 8.5 10.3464 8.44732 10.4714 8.35355C10.5964 8.25979 10.6667 8.13261 10.6667 8V2C10.6667 1.86739 10.5964 1.74021 10.4714 1.64645C10.3464 1.55268 10.1768 1.5 10 1.5Z" fill="#A7A7A7"/>
</svg>
